<mxfile host="app.diagrams.net" modified="2021-09-23T06:20:27.341Z" agent="5.0 (Windows)" etag="e_7SEQs370hb2blALwgZ" version="15.2.7" type="github">
  <diagram name="Page-1" id="ad52d381-51e7-2e0d-a935-2d0ddd2fd229">
    <mxGraphModel dx="1483" dy="707" grid="1" gridSize="10" guides="1" tooltips="1" connect="1" arrows="1" fold="1" page="1" pageScale="1" pageWidth="1100" pageHeight="850" background="none" math="0" shadow="0">
      <root>
        <mxCell id="0" />
        <mxCell id="1" parent="0" />
        <mxCell id="2c924340bb9dbf6c-1" value="Внесение поправок в счёт с учетом жалоб" style="whiteSpace=wrap;html=1;rounded=1;shadow=0;comic=0;labelBackgroundColor=none;strokeWidth=2;fontFamily=Verdana;fontSize=12;align=center;arcSize=50;" parent="1" vertex="1">
          <mxGeometry x="90" y="95" width="140" height="40" as="geometry" />
        </mxCell>
        <mxCell id="2c924340bb9dbf6c-10" value="Создание списка персонала на данную смену" style="whiteSpace=wrap;html=1;rounded=1;shadow=0;comic=0;labelBackgroundColor=none;strokeWidth=2;fontFamily=Verdana;fontSize=12;align=center;arcSize=50;" parent="1" vertex="1">
          <mxGeometry x="360" y="90" width="130" height="50" as="geometry" />
        </mxCell>
        <mxCell id="2c924340bb9dbf6c-11" value="Открытие счёта" style="whiteSpace=wrap;html=1;rounded=1;shadow=0;comic=0;labelBackgroundColor=none;strokeWidth=2;fontFamily=Verdana;fontSize=12;align=center;arcSize=50;" parent="1" vertex="1">
          <mxGeometry x="550" y="330" width="120" height="20" as="geometry" />
        </mxCell>
        <mxCell id="2c924340bb9dbf6c-14" value="Обслуживание клиента в порядке электронной очереди" style="whiteSpace=wrap;html=1;rounded=1;shadow=0;comic=0;labelBackgroundColor=none;strokeWidth=2;fontFamily=Verdana;fontSize=12;align=center;arcSize=50;" parent="1" vertex="1">
          <mxGeometry x="685" y="220" width="170" height="50" as="geometry" />
        </mxCell>
        <mxCell id="2c924340bb9dbf6c-17" value="Отмена блюд из заказа" style="whiteSpace=wrap;html=1;rounded=1;shadow=0;comic=0;labelBackgroundColor=none;strokeWidth=2;fontFamily=Verdana;fontSize=12;align=center;arcSize=50;" parent="1" vertex="1">
          <mxGeometry x="860" y="325" width="120" height="30" as="geometry" />
        </mxCell>
        <mxCell id="2c924340bb9dbf6c-18" value="Передача заказа на кухню" style="whiteSpace=wrap;html=1;rounded=1;shadow=0;comic=0;labelBackgroundColor=none;strokeWidth=2;fontFamily=Verdana;fontSize=12;align=center;arcSize=50;" parent="1" vertex="1">
          <mxGeometry x="840" y="430" width="100" height="50" as="geometry" />
        </mxCell>
        <mxCell id="2c924340bb9dbf6c-19" value="Формирование заказа" style="whiteSpace=wrap;html=1;rounded=1;shadow=0;comic=0;labelBackgroundColor=none;strokeWidth=2;fontFamily=Verdana;fontSize=12;align=center;arcSize=50;" parent="1" vertex="1">
          <mxGeometry x="600" y="430" width="120" height="40" as="geometry" />
        </mxCell>
        <mxCell id="2c924340bb9dbf6c-55" value="Подсчет прибыли R-keeper в конце дня&amp;nbsp;" style="whiteSpace=wrap;html=1;rounded=1;shadow=0;comic=0;labelBackgroundColor=none;strokeWidth=2;fontFamily=Verdana;fontSize=12;align=center;arcSize=50;" parent="1" vertex="1">
          <mxGeometry x="230" y="300" width="150" height="40" as="geometry" />
        </mxCell>
        <mxCell id="YYdvZUi9x7q3sWrVz7vb-11" value="" style="edgeStyle=none;orthogonalLoop=1;jettySize=auto;html=1;endArrow=none;endFill=0;strokeColor=default;" edge="1" parent="1" source="3pCu6Yg-yBueKO-Vz3sY-1" target="2c924340bb9dbf6c-55">
          <mxGeometry relative="1" as="geometry" />
        </mxCell>
        <mxCell id="YYdvZUi9x7q3sWrVz7vb-13" value="" style="edgeStyle=none;orthogonalLoop=1;jettySize=auto;html=1;endArrow=none;endFill=0;strokeColor=default;" edge="1" parent="1" source="3pCu6Yg-yBueKO-Vz3sY-1" target="2c924340bb9dbf6c-10">
          <mxGeometry relative="1" as="geometry">
            <mxPoint x="355" y="180" as="targetPoint" />
          </mxGeometry>
        </mxCell>
        <mxCell id="YYdvZUi9x7q3sWrVz7vb-14" style="edgeStyle=none;orthogonalLoop=1;jettySize=auto;html=1;endArrow=none;endFill=0;strokeColor=default;" edge="1" parent="1" source="3pCu6Yg-yBueKO-Vz3sY-1" target="2c924340bb9dbf6c-1">
          <mxGeometry relative="1" as="geometry" />
        </mxCell>
        <mxCell id="3pCu6Yg-yBueKO-Vz3sY-1" value="Менеджер" style="shape=umlActor;verticalLabelPosition=bottom;verticalAlign=top;html=1;outlineConnect=0;fillColor=#f8cecc;strokeColor=#b85450;" parent="1" vertex="1">
          <mxGeometry x="290" y="150" width="30" height="60" as="geometry" />
        </mxCell>
        <mxCell id="YYdvZUi9x7q3sWrVz7vb-2" style="edgeStyle=none;orthogonalLoop=1;jettySize=auto;html=1;endArrow=none;endFill=0;strokeColor=default;" edge="1" parent="1" source="3pCu6Yg-yBueKO-Vz3sY-8" target="2c924340bb9dbf6c-17">
          <mxGeometry relative="1" as="geometry" />
        </mxCell>
        <mxCell id="YYdvZUi9x7q3sWrVz7vb-3" style="edgeStyle=none;orthogonalLoop=1;jettySize=auto;html=1;endArrow=none;endFill=0;strokeColor=default;" edge="1" parent="1" source="3pCu6Yg-yBueKO-Vz3sY-8" target="2c924340bb9dbf6c-14">
          <mxGeometry relative="1" as="geometry" />
        </mxCell>
        <mxCell id="YYdvZUi9x7q3sWrVz7vb-4" style="edgeStyle=none;orthogonalLoop=1;jettySize=auto;html=1;endArrow=none;endFill=0;strokeColor=default;" edge="1" parent="1" source="3pCu6Yg-yBueKO-Vz3sY-8" target="2c924340bb9dbf6c-11">
          <mxGeometry relative="1" as="geometry" />
        </mxCell>
        <mxCell id="YYdvZUi9x7q3sWrVz7vb-5" style="edgeStyle=none;orthogonalLoop=1;jettySize=auto;html=1;endArrow=none;endFill=0;strokeColor=default;" edge="1" parent="1" source="3pCu6Yg-yBueKO-Vz3sY-8" target="2c924340bb9dbf6c-19">
          <mxGeometry relative="1" as="geometry" />
        </mxCell>
        <mxCell id="YYdvZUi9x7q3sWrVz7vb-6" style="edgeStyle=none;orthogonalLoop=1;jettySize=auto;html=1;endArrow=none;endFill=0;strokeColor=default;" edge="1" parent="1" source="3pCu6Yg-yBueKO-Vz3sY-8" target="2c924340bb9dbf6c-18">
          <mxGeometry relative="1" as="geometry" />
        </mxCell>
        <mxCell id="3pCu6Yg-yBueKO-Vz3sY-8" value="Официант&amp;nbsp;" style="shape=umlActor;verticalLabelPosition=bottom;verticalAlign=top;html=1;outlineConnect=0;fillColor=#e1d5e7;strokeColor=#9673a6;" parent="1" vertex="1">
          <mxGeometry x="755" y="330" width="30" height="60" as="geometry" />
        </mxCell>
        <mxCell id="YYdvZUi9x7q3sWrVz7vb-7" value="" style="edgeStyle=none;orthogonalLoop=1;jettySize=auto;html=1;endArrow=none;endFill=0;strokeColor=default;" edge="1" parent="1" source="3pCu6Yg-yBueKO-Vz3sY-15" target="3pCu6Yg-yBueKO-Vz3sY-18">
          <mxGeometry relative="1" as="geometry" />
        </mxCell>
        <mxCell id="YYdvZUi9x7q3sWrVz7vb-8" value="" style="edgeStyle=none;orthogonalLoop=1;jettySize=auto;html=1;endArrow=none;endFill=0;strokeColor=default;" edge="1" parent="1" source="3pCu6Yg-yBueKO-Vz3sY-15" target="3pCu6Yg-yBueKO-Vz3sY-20">
          <mxGeometry relative="1" as="geometry" />
        </mxCell>
        <mxCell id="YYdvZUi9x7q3sWrVz7vb-9" value="" style="edgeStyle=none;orthogonalLoop=1;jettySize=auto;html=1;endArrow=none;endFill=0;strokeColor=default;" edge="1" parent="1" source="3pCu6Yg-yBueKO-Vz3sY-15" target="3pCu6Yg-yBueKO-Vz3sY-17">
          <mxGeometry relative="1" as="geometry" />
        </mxCell>
        <mxCell id="YYdvZUi9x7q3sWrVz7vb-10" value="" style="edgeStyle=none;orthogonalLoop=1;jettySize=auto;html=1;endArrow=none;endFill=0;strokeColor=default;" edge="1" parent="1" source="3pCu6Yg-yBueKO-Vz3sY-15" target="3pCu6Yg-yBueKO-Vz3sY-19">
          <mxGeometry relative="1" as="geometry" />
        </mxCell>
        <mxCell id="3pCu6Yg-yBueKO-Vz3sY-15" value="Клиент" style="shape=umlActor;verticalLabelPosition=bottom;verticalAlign=top;html=1;outlineConnect=0;fillColor=#e3c800;strokeColor=#B09500;fontColor=#000000;" parent="1" vertex="1">
          <mxGeometry x="300" y="560" width="30" height="60" as="geometry" />
        </mxCell>
        <mxCell id="3pCu6Yg-yBueKO-Vz3sY-17" value="Заказ блюд" style="whiteSpace=wrap;html=1;rounded=1;shadow=0;comic=0;labelBackgroundColor=none;strokeWidth=2;fontFamily=Verdana;fontSize=12;align=center;arcSize=50;" parent="1" vertex="1">
          <mxGeometry x="240" y="470" width="150" height="40" as="geometry" />
        </mxCell>
        <mxCell id="3pCu6Yg-yBueKO-Vz3sY-18" value="Просмотр меню" style="whiteSpace=wrap;html=1;rounded=1;shadow=0;comic=0;labelBackgroundColor=none;strokeWidth=2;fontFamily=Verdana;fontSize=12;align=center;arcSize=50;" parent="1" vertex="1">
          <mxGeometry x="400" y="570" width="150" height="40" as="geometry" />
        </mxCell>
        <mxCell id="3pCu6Yg-yBueKO-Vz3sY-19" value="Оплата счёта" style="whiteSpace=wrap;html=1;rounded=1;shadow=0;comic=0;labelBackgroundColor=none;strokeWidth=2;fontFamily=Verdana;fontSize=12;align=center;arcSize=50;" parent="1" vertex="1">
          <mxGeometry x="240" y="690" width="150" height="40" as="geometry" />
        </mxCell>
        <mxCell id="3pCu6Yg-yBueKO-Vz3sY-20" value="Оставление отзыва" style="whiteSpace=wrap;html=1;rounded=1;shadow=0;comic=0;labelBackgroundColor=none;strokeWidth=2;fontFamily=Verdana;fontSize=12;align=center;arcSize=50;" parent="1" vertex="1">
          <mxGeometry x="85" y="570" width="150" height="40" as="geometry" />
        </mxCell>
      </root>
    </mxGraphModel>
  </diagram>
</mxfile>
